<?xml version="1.0" standalone="no"?>
<!DOCTYPE svg PUBLIC "-//W3C//DTD SVG 20010904//EN"
 "http://www.w3.org/TR/2001/REC-SVG-20010904/DTD/svg10.dtd">
<svg version="1.0" xmlns="http://www.w3.org/2000/svg"
 width="1174.000000pt" height="424.000000pt" viewBox="0 0 1174.000000 424.000000"
 preserveAspectRatio="xMidYMid meet">

<g transform="translate(0.000000,424.000000) scale(0.100000,-0.100000)"
fill="#000000" stroke="none">
<path d="M2530 3587 c-319 -87 -499 -342 -500 -708 0 -158 21 -263 75 -374 51
-105 97 -163 180 -230 81 -65 169 -103 295 -127 101 -20 109 -20 208 -5 168
27 282 86 389 201 70 74 109 141 149 251 28 78 29 84 29 280 -1 183 -3 206
-24 265 -43 123 -91 201 -170 280 -125 124 -253 178 -441 186 -88 4 -119 1
-190 -19z m273 -28 c59 -16 139 -100 167 -174 42 -114 54 -228 54 -515 0 -286
-11 -390 -55 -511 -48 -132 -155 -198 -300 -186 -126 11 -203 73 -248 202 -38
110 -51 236 -51 503 0 205 3 268 20 360 44 241 125 332 300 332 41 0 92 -5
113 -11z"/>
<path d="M5885 3604 c-174 -42 -272 -91 -369 -188 -300 -298 -264 -915 68
-1150 59 -42 146 -91 150 -84 1 2 7 20 14 42 10 34 8 44 -13 86 -68 134 -97
420 -76 746 16 263 51 377 138 454 55 48 112 64 210 58 206 -12 279 -140 303
-526 8 -126 8 -221 0 -349 -25 -379 -99 -505 -306 -520 -74 -6 -99 -17 -73
-34 42 -27 252 16 364 74 93 49 202 150 253 239 40 67 77 174 93 264 17 97 6
322 -19 404 -94 304 -308 474 -612 485 -58 2 -114 2 -125 -1z"/>
<path d="M9405 3594 c-210 -44 -339 -172 -352 -347 -18 -234 89 -372 393 -507
116 -51 226 -120 252 -158 43 -61 56 -162 32 -238 -19 -58 -66 -111 -124 -142
-45 -24 -62 -27 -151 -27 -91 0 -106 3 -166 31 -79 38 -112 77 -180 215 -28
56 -54 97 -59 93 -4 -5 -10 -69 -14 -141 l-6 -133 37 -19 c64 -32 167 -59 292
-77 113 -16 126 -16 233 0 196 30 316 105 380 234 29 58 33 79 36 159 8 212
-72 317 -338 444 -214 102 -232 113 -286 165 -63 61 -78 103 -73 206 4 63 9
82 33 117 16 23 50 54 75 69 42 25 55 27 156 27 159 0 186 -19 290 -209 32
-58 62 -106 66 -106 9 0 24 224 16 244 -10 24 -103 66 -205 92 -110 28 -228
31 -337 8z"/>
<path d="M7220 3540 c0 -6 18 -17 40 -26 72 -29 70 -17 70 -535 0 -447 1 -462
18 -446 28 26 61 21 75 -10 6 -15 20 -36 30 -46 23 -23 17 -79 -20 -207 -14
-47 -28 -93 -30 -103 -5 -16 12 -17 292 -15 228 2 299 6 303 16 3 9 -36 12
-172 12 -174 0 -176 0 -181 23 -3 12 -5 297 -3 632 3 684 -1 644 77 679 22 11
38 23 35 27 -8 13 -534 11 -534 -1z"/>
<path d="M8375 3541 c-3 -5 10 -14 28 -20 19 -7 45 -23 58 -37 l24 -26 0 -606
c0 -459 -3 -612 -12 -628 -7 -12 -33 -31 -58 -43 -25 -12 -45 -23 -45 -26 0
-3 122 -5 270 -5 149 0 270 3 270 8 -1 4 -20 16 -43 28 -23 11 -48 31 -54 45
-17 32 -19 1180 -2 1227 7 22 24 37 55 52 24 12 44 26 44 31 0 12 -527 12
-535 0z"/>
<path d="M688 3378 c-2 -90 -1 -167 3 -172 4 -5 30 36 57 90 28 55 64 118 82
142 44 62 79 73 208 70 l107 -3 3 -624 c2 -683 5 -654 -56 -685 -15 -8 -44
-17 -65 -21 -98 -19 -25 -25 283 -25 182 0 329 4 326 8 -3 5 -30 14 -60 21
-40 9 -62 21 -81 42 l-25 31 0 629 0 629 110 0 c72 0 122 -5 144 -14 39 -16
76 -67 134 -181 71 -140 71 -140 72 15 0 74 -3 152 -6 173 l-7 37 -612 0 -613
0 -4 -162z"/>
<path d="M3935 3531 c3 -6 13 -11 20 -11 8 0 30 -14 50 -31 l35 -31 0 -524 0
-524 103 68 c56 37 128 81 159 97 l58 30 2 450 3 450 105 -1 c84 -1 117 -6
164 -24 103 -39 168 -116 209 -245 14 -43 49 -261 46 -283 -1 -4 -1 -51 0
-104 l1 -98 39 -20 c26 -13 51 -39 75 -77 32 -51 36 -65 34 -113 -3 -59 -23
-75 -43 -34 -5 11 -15 19 -21 17 -20 -7 -44 27 -38 52 8 30 -12 65 -36 65 -21
0 -22 -4 -39 -105 -21 -132 -78 -234 -163 -291 -55 -38 -185 -67 -273 -62
l-60 3 -3 138 -3 139 -47 -28 c-90 -52 -228 -152 -283 -206 -30 -29 -63 -58
-74 -65 -26 -16 569 -18 665 -2 186 29 350 114 446 230 188 227 206 618 39
869 -59 89 -129 149 -230 200 -144 72 -155 73 -573 78 -263 2 -372 0 -367 -7z"/>
<path d="M10131 3370 c-1 -93 0 -170 3 -170 3 0 28 45 56 99 102 199 122 213
288 209 l107 -3 3 -624 c2 -683 5 -654 -56 -685 -15 -8 -44 -17 -65 -21 -98
-19 -25 -25 282 -25 182 0 331 4 331 8 0 4 -27 14 -59 20 -46 10 -66 20 -85
43 l-26 31 0 629 0 629 113 0 c167 0 177 -8 282 -205 26 -49 51 -94 56 -99 10
-11 12 254 3 303 l-6 31 -612 0 -611 0 -4 -170z"/>
<path d="M8212 2235 l-42 -85 39 0 38 0 7 81 c4 44 6 82 4 85 -2 2 -23 -35
-46 -81z"/>
</g>
</svg>
